<svg width="48" height="44" viewBox="0 0 48 44" fill="none" xmlns="http://www.w3.org/2000/svg">
<path d="M24 41.2C23.4 41.2 22.85 41 22.4 40.65C16.15 35.65 11.85 31.45 8.7 27.65C5.05 23.25 3.2 19.2 3.2 15.15C3.2 11.35 4.5 8.25 6.95 6.05C9.4 3.85 12.45 2.75 16.1 2.75C18.4 2.75 20.55 3.3 22.5 4.35C23.15 4.7 23.6 4.95 24 5.2C24.4 4.95 24.85 4.7 25.5 4.35C27.45 3.3 29.6 2.75 31.9 2.75C35.55 2.75 38.6 3.85 41.05 6.05C43.5 8.25 44.8 11.35 44.8 15.15C44.8 19.2 42.95 23.25 39.3 27.65C36.15 31.45 31.85 35.65 25.6 40.65C25.15 41 24.6 41.2 24 41.2Z" fill="#FAFAF7"/>
</svg>
